<mxfile host="app.diagrams.net" modified="2024-03-15T20:10:44.700Z" agent="Mozilla/5.0 (Windows NT 10.0; Win64; x64) AppleWebKit/537.36 (KHTML, like Gecko) Chrome/122.0.0.0 Safari/537.36" etag="agcYzyygqNPlQlLwPvWm" version="23.1.5" type="device">
  <diagram name="Page-1" id="e7e014a7-5840-1c2e-5031-d8a46d1fe8dd">
    <mxGraphModel dx="1728" dy="922" grid="1" gridSize="10" guides="1" tooltips="1" connect="1" arrows="1" fold="1" page="1" pageScale="1" pageWidth="1169" pageHeight="826" background="none" math="0" shadow="0">
      <root>
        <mxCell id="0" />
        <mxCell id="1" parent="0" />
        <mxCell id="aO-ZwqscGiUsRUBuonYR-41" value="&lt;p style=&quot;margin:0px;margin-top:4px;text-align:center;&quot;&gt;&lt;br&gt;&lt;/p&gt;&lt;p style=&quot;margin:0px;margin-top:4px;text-align:center;&quot;&gt;&lt;font style=&quot;font-size: 14px;&quot;&gt;&lt;b&gt;Web Based Application&lt;/b&gt;&lt;/font&gt;&lt;/p&gt;" style="verticalAlign=top;align=left;overflow=fill;html=1;whiteSpace=wrap;" parent="1" vertex="1">
          <mxGeometry x="220" y="113" width="730" height="600" as="geometry" />
        </mxCell>
        <mxCell id="aO-ZwqscGiUsRUBuonYR-42" value="WDO in &lt;br&gt;the office" style="shape=umlActor;verticalLabelPosition=bottom;verticalAlign=top;html=1;" parent="1" vertex="1">
          <mxGeometry x="90" y="373" width="40" height="80" as="geometry" />
        </mxCell>
        <mxCell id="aO-ZwqscGiUsRUBuonYR-48" value="WDO in &lt;br&gt;the field" style="shape=umlActor;verticalLabelPosition=bottom;verticalAlign=top;html=1;" parent="1" vertex="1">
          <mxGeometry x="1040" y="373" width="40" height="80" as="geometry" />
        </mxCell>
        <mxCell id="aO-ZwqscGiUsRUBuonYR-49" value="Schedules water requests in his area for the day" style="ellipse;whiteSpace=wrap;html=1;" parent="1" vertex="1">
          <mxGeometry x="290" y="520" width="140" height="70" as="geometry" />
        </mxCell>
        <mxCell id="XMM5lSC8qHMZOTQO9a6y-17" style="rounded=0;orthogonalLoop=1;jettySize=auto;html=1;exitX=0;exitY=1;exitDx=0;exitDy=0;entryX=1;entryY=0;entryDx=0;entryDy=0;strokeColor=default;curved=0;dashed=1;" edge="1" parent="1" source="aO-ZwqscGiUsRUBuonYR-50" target="aO-ZwqscGiUsRUBuonYR-49">
          <mxGeometry relative="1" as="geometry" />
        </mxCell>
        <mxCell id="XMM5lSC8qHMZOTQO9a6y-18" value="extends" style="edgeLabel;html=1;align=center;verticalAlign=middle;resizable=0;points=[];" vertex="1" connectable="0" parent="XMM5lSC8qHMZOTQO9a6y-17">
          <mxGeometry x="-0.0519" y="2" relative="1" as="geometry">
            <mxPoint as="offset" />
          </mxGeometry>
        </mxCell>
        <mxCell id="XMM5lSC8qHMZOTQO9a6y-19" style="rounded=0;orthogonalLoop=1;jettySize=auto;html=1;exitX=1;exitY=0;exitDx=0;exitDy=0;entryX=0;entryY=1;entryDx=0;entryDy=0;dashed=1;" edge="1" parent="1" source="aO-ZwqscGiUsRUBuonYR-50" target="aO-ZwqscGiUsRUBuonYR-51">
          <mxGeometry relative="1" as="geometry" />
        </mxCell>
        <mxCell id="XMM5lSC8qHMZOTQO9a6y-20" value="extends" style="edgeLabel;html=1;align=center;verticalAlign=middle;resizable=0;points=[];" vertex="1" connectable="0" parent="XMM5lSC8qHMZOTQO9a6y-19">
          <mxGeometry x="0.0338" relative="1" as="geometry">
            <mxPoint as="offset" />
          </mxGeometry>
        </mxCell>
        <mxCell id="XMM5lSC8qHMZOTQO9a6y-21" style="rounded=0;orthogonalLoop=1;jettySize=auto;html=1;exitX=1;exitY=1;exitDx=0;exitDy=0;entryX=0;entryY=0;entryDx=0;entryDy=0;dashed=1;" edge="1" parent="1" source="aO-ZwqscGiUsRUBuonYR-50" target="aO-ZwqscGiUsRUBuonYR-52">
          <mxGeometry relative="1" as="geometry" />
        </mxCell>
        <mxCell id="XMM5lSC8qHMZOTQO9a6y-22" value="extends" style="edgeLabel;html=1;align=center;verticalAlign=middle;resizable=0;points=[];" vertex="1" connectable="0" parent="XMM5lSC8qHMZOTQO9a6y-21">
          <mxGeometry x="0.0271" y="2" relative="1" as="geometry">
            <mxPoint as="offset" />
          </mxGeometry>
        </mxCell>
        <mxCell id="aO-ZwqscGiUsRUBuonYR-50" value="Views and edits the schedule" style="ellipse;whiteSpace=wrap;html=1;" parent="1" vertex="1">
          <mxGeometry x="515" y="400" width="140" height="70" as="geometry" />
        </mxCell>
        <mxCell id="aO-ZwqscGiUsRUBuonYR-51" value="Records start time, end time, and duration" style="ellipse;whiteSpace=wrap;html=1;" parent="1" vertex="1">
          <mxGeometry x="740" y="310" width="140" height="70" as="geometry" />
        </mxCell>
        <mxCell id="aO-ZwqscGiUsRUBuonYR-52" value="Submits report to mainframe" style="ellipse;whiteSpace=wrap;html=1;" parent="1" vertex="1">
          <mxGeometry x="740" y="520" width="140" height="70" as="geometry" />
        </mxCell>
        <mxCell id="XMM5lSC8qHMZOTQO9a6y-15" style="edgeStyle=orthogonalEdgeStyle;rounded=0;orthogonalLoop=1;jettySize=auto;html=1;exitX=0.5;exitY=1;exitDx=0;exitDy=0;dashed=1;" edge="1" parent="1" source="aO-ZwqscGiUsRUBuonYR-56" target="aO-ZwqscGiUsRUBuonYR-50">
          <mxGeometry relative="1" as="geometry" />
        </mxCell>
        <mxCell id="XMM5lSC8qHMZOTQO9a6y-16" value="extends" style="edgeLabel;html=1;align=center;verticalAlign=middle;resizable=0;points=[];" vertex="1" connectable="0" parent="XMM5lSC8qHMZOTQO9a6y-15">
          <mxGeometry x="-0.0122" y="1" relative="1" as="geometry">
            <mxPoint as="offset" />
          </mxGeometry>
        </mxCell>
        <mxCell id="aO-ZwqscGiUsRUBuonYR-56" value="Logs in to website" style="ellipse;whiteSpace=wrap;html=1;" parent="1" vertex="1">
          <mxGeometry x="515" y="190" width="140" height="70" as="geometry" />
        </mxCell>
        <mxCell id="aO-ZwqscGiUsRUBuonYR-73" value="User Authentication" style="ellipse;whiteSpace=wrap;html=1;" parent="1" vertex="1">
          <mxGeometry x="290" y="190" width="140" height="70" as="geometry" />
        </mxCell>
        <mxCell id="XMM5lSC8qHMZOTQO9a6y-6" value="" style="endArrow=none;html=1;rounded=0;entryX=0;entryY=1;entryDx=0;entryDy=0;" edge="1" parent="1" target="aO-ZwqscGiUsRUBuonYR-56">
          <mxGeometry width="50" height="50" relative="1" as="geometry">
            <mxPoint x="130" y="413" as="sourcePoint" />
            <mxPoint x="180" y="350" as="targetPoint" />
          </mxGeometry>
        </mxCell>
        <mxCell id="XMM5lSC8qHMZOTQO9a6y-7" value="" style="endArrow=none;html=1;rounded=0;entryX=0;entryY=0.5;entryDx=0;entryDy=0;" edge="1" parent="1" source="aO-ZwqscGiUsRUBuonYR-42" target="aO-ZwqscGiUsRUBuonYR-50">
          <mxGeometry width="50" height="50" relative="1" as="geometry">
            <mxPoint x="150" y="420" as="sourcePoint" />
            <mxPoint x="190" y="400" as="targetPoint" />
          </mxGeometry>
        </mxCell>
        <mxCell id="XMM5lSC8qHMZOTQO9a6y-9" value="" style="endArrow=none;html=1;rounded=0;exitX=1;exitY=0.5;exitDx=0;exitDy=0;" edge="1" parent="1" source="aO-ZwqscGiUsRUBuonYR-50">
          <mxGeometry width="50" height="50" relative="1" as="geometry">
            <mxPoint x="970" y="470" as="sourcePoint" />
            <mxPoint x="1040" y="410" as="targetPoint" />
          </mxGeometry>
        </mxCell>
        <mxCell id="XMM5lSC8qHMZOTQO9a6y-10" value="" style="endArrow=none;html=1;rounded=0;exitX=1;exitY=0.5;exitDx=0;exitDy=0;" edge="1" parent="1" source="aO-ZwqscGiUsRUBuonYR-51">
          <mxGeometry width="50" height="50" relative="1" as="geometry">
            <mxPoint x="980" y="350" as="sourcePoint" />
            <mxPoint x="1040" y="410" as="targetPoint" />
          </mxGeometry>
        </mxCell>
        <mxCell id="XMM5lSC8qHMZOTQO9a6y-11" value="" style="endArrow=none;html=1;rounded=0;entryX=0;entryY=0.5;entryDx=0;entryDy=0;" edge="1" parent="1" target="aO-ZwqscGiUsRUBuonYR-49">
          <mxGeometry width="50" height="50" relative="1" as="geometry">
            <mxPoint x="130" y="413" as="sourcePoint" />
            <mxPoint x="190" y="440" as="targetPoint" />
          </mxGeometry>
        </mxCell>
        <mxCell id="XMM5lSC8qHMZOTQO9a6y-12" value="" style="endArrow=none;html=1;rounded=0;exitX=1;exitY=0.5;exitDx=0;exitDy=0;" edge="1" parent="1" source="aO-ZwqscGiUsRUBuonYR-52">
          <mxGeometry width="50" height="50" relative="1" as="geometry">
            <mxPoint x="930" y="530" as="sourcePoint" />
            <mxPoint x="1040" y="410" as="targetPoint" />
          </mxGeometry>
        </mxCell>
        <mxCell id="XMM5lSC8qHMZOTQO9a6y-13" value="" style="endArrow=none;dashed=1;html=1;rounded=0;entryX=0;entryY=0.5;entryDx=0;entryDy=0;exitX=1;exitY=0.5;exitDx=0;exitDy=0;endFill=0;startArrow=classic;startFill=1;" edge="1" parent="1" source="aO-ZwqscGiUsRUBuonYR-73" target="aO-ZwqscGiUsRUBuonYR-56">
          <mxGeometry width="50" height="50" relative="1" as="geometry">
            <mxPoint x="440" y="260" as="sourcePoint" />
            <mxPoint x="490" y="210" as="targetPoint" />
          </mxGeometry>
        </mxCell>
        <mxCell id="XMM5lSC8qHMZOTQO9a6y-14" value="uses" style="edgeLabel;html=1;align=center;verticalAlign=middle;resizable=0;points=[];" vertex="1" connectable="0" parent="XMM5lSC8qHMZOTQO9a6y-13">
          <mxGeometry x="-0.1429" relative="1" as="geometry">
            <mxPoint as="offset" />
          </mxGeometry>
        </mxCell>
      </root>
    </mxGraphModel>
  </diagram>
</mxfile>
